PathFileType	4	(X/Y/Z)	C:\Users\WrightLab\Desktop\Jo\P1_boxCal22.trc
DataRate	CameraRate	NumFrames	NumMarkers	Units	OrigDataRate	OrigDataStartFrame	OrigNumFrames
100.00	100.00	       8	19	mm	100.00	165	       657
Frame#	Time	Headset_Front			Headset_Back			Headset_Left			Headset_Right			Left_Shoulder			Right_Shoulder			Sternum			C7			Left Elbow			Right Elbow			Left Wrist			Right Wrist			Left ASIS			Right ASIS			S2			Left Knee			Right Knee			Left Ankle			Right Ankle			
		X1	Y1	Z1	X2	Y2	Z2	X3	Y3	Z3	X4	Y4	Z4	X5	Y5	Z5	X6	Y6	Z6	X7	Y7	Z7	X8	Y8	Z8	X9	Y9	Z9	X10	Y10	Z10	X11	Y11	Z11	X12	Y12	Z12	X13	Y13	Z13	X14	Y14	Z14	X15	Y15	Z15	X16	Y16	Z16	X17	Y17	Z17	X18	Y18	Z18	X19	Y19	Z19	

165	1.640	-282.32281	1354.47852	-1105.68640	-380.19879	137.00786	9.55641							-49.40972	1232.90210	-1321.00720	-430.42258	1221.22754	-1343.05420							43.71663	915.67828	-1351.82605	-500.51471	952.08771	-1419.52234	83.48254	721.49713	-1258.62244	-561.02692	717.86084	-1373.24988	-150.19087	843.84796	-1203.66992	-352.87219	841.62036	-1218.47839	-225.59409	859.31006	-1526.84460	-91.57253	55.84523	-1528.57898	-442.77115	438.32452	-1255.00232	-82.50653	395.17239	-1397.46448				
166	1.650	-285.58401	1353.25378	-1100.56885	-379.58163	137.65851	9.07764							-52.65060	1231.87048	-1313.99341	-433.86514	1220.01086	-1336.53760							40.65879	914.51898	-1344.60400	-503.46762	951.44464	-1414.67346	80.74693	721.75653	-1253.61731				-153.97275	843.30151	-1197.98486	-355.89621	841.63342	-1213.28833	-228.67542	858.73016	-1521.89563	-91.79947	58.75074	-1529.43115	-444.37555	439.31485	-1249.39648	-83.17166	394.23819	-1396.09021				
167	1.660	-289.00604	1352.91064	-1094.82678	-380.19879	137.00786	9.55641							-56.59665	1232.16089	-1309.84863	-437.23071	1220.39319	-1333.83167							37.76117	914.69250	-1339.77844	-506.64285	950.56848	-1409.91064	78.48547	721.22211	-1247.92358				-156.87936	842.19263	-1195.96033	-358.51108	840.56982	-1206.74243	-231.71529	858.22485	-1516.47156	-91.93405	59.05574	-1528.91797	-447.12411	437.75409	-1240.00598	-84.53304	396.57205	-1381.23914				
168	1.670	-294.95844	1352.85095	-1089.78528	-380.19879	137.00786	9.55641							-59.82939	1231.87671	-1304.37610	-440.42682	1218.90796	-1327.03088							34.14611	914.35931	-1333.57544	-508.74640	949.74329	-1405.00415	75.01331	720.82373	-1241.97583				-160.31796	842.68127	-1189.64575	-361.48727	839.62061	-1201.21155	-234.95607	857.84973	-1511.17615	-92.23844	59.63905	-1527.98645	-448.39374	436.64911	-1237.46497	-87.35264	394.20319	-1383.37500				
169	1.680	-298.21756	1352.64246	-1083.54968	-379.58163	137.65851	9.07764							-63.43951	1230.89368	-1297.15930	-444.02908	1217.99353	-1320.85364							31.80195	913.75269	-1327.46765	-511.83398	949.06445	-1399.60486	72.48412	719.34845	-1236.65930	-573.28180	714.83160	-1356.01782	-162.79317	841.37262	-1182.13611	-364.69040	837.90045	-1194.92712	-238.26634	857.14056	-1505.10339	-91.76764	61.33503	-1527.49341	-451.46396	437.63437	-1225.19141	-87.35658	396.21826	-1374.00940				
170	1.690	-302.32751	1352.26501	-1077.95557							-388.79178	1386.35156	-1195.61340	-66.99538	1229.41699	-1288.39355	-447.58286	1217.44006	-1315.84338							28.09320	913.81891	-1322.21277	-515.69574	948.48083	-1394.43640	68.78282	719.14685	-1228.77759				-165.94031	840.11292	-1175.87195	-366.46838	838.10535	-1190.18994	-241.73503	856.79016	-1499.86169	-92.09199	65.03952	-1529.00354	-452.77637	434.21887	-1225.60181	-91.46556	396.11844	-1373.86511				
171	1.700	-305.42630	1351.18079	-1072.00867							-392.87448	1385.91797	-1189.96704	-71.27679	1229.17615	-1282.37854	-451.95819	1216.45520	-1308.88904							24.17593	913.12988	-1314.86572	-518.79236	947.54041	-1388.83569	65.45726	720.19885	-1224.65796				-169.32439	841.09827	-1166.11169	-371.99106	835.59668	-1186.81641	-245.21706	856.38623	-1493.83264	-91.66563	66.77332	-1528.47534	-455.99402	435.78345	-1211.04395	-93.43407	394.97058	-1371.85107				
172	1.710	-311.53461	1351.32910	-1066.02893							-397.46033	1385.61340	-1184.28564	-75.18845	1228.30786	-1274.72034	-455.92725	1216.22876	-1303.96545							20.48802	912.66351	-1308.40369	-522.47949	946.57263	-1382.19189	62.05490	719.86816	-1218.58887				-173.99973	840.10706	-1162.64978	-375.22012	835.51447	-1178.74316	-248.98950	855.71722	-1487.59009	-91.65074	67.81742	-1526.22595	-458.12134	431.20761	-1211.02637	-95.43533	392.69818	-1369.72009				
